<?xml version="1.0" standalone="no"?><!DOCTYPE svg PUBLIC "-//W3C//DTD SVG 1.1//EN" "http://www.w3.org/Graphics/SVG/1.1/DTD/svg11.dtd"><svg t="1704871692116" class="icon" viewBox="0 0 1325 1024" version="1.1" xmlns="http://www.w3.org/2000/svg" p-id="24416" xmlns:xlink="http://www.w3.org/1999/xlink" width="258.7890625" height="200"><path d="M1325.172183 966.264657H579.76283V370.750349l109.507411-177.48272h551.24151L1325.172183 380.478317v585.78634z m-678.608628-67.945192h611.868138V388.218528l-59.933923-126.97559H726.224474l-79.630801 129.0537v507.99271z" fill="#d81e06" p-id="24417"></path><path d="M1120.553551 496.762176h66.559785v66.981431h-66.559785v-66.981431z m0 275.063581h66.559785v66.98143h-66.559785v-66.98143z m-591.508674 139.233432H250.36719C157.364197 911.059189 0 861.816995 0 677.347004c0-166.038051 115.621273-307.349594 272.714412-338.340553 35.02671-147.274818 141.311543-266.148786 281.840029-315.150039C695.113045-25.174959 850.399131 2.412717 966.472167 97.042058c15.781596 12.950546 30.719901 26.955207 44.664326 41.953746l-48.609725 46.95326a364.572938 364.572938 0 0 0-267.293253-117.639149c-177.271897 0-329.365523 129.0537-361.711771 306.988184l-4.457397 24.69639-24.425333 2.981638c-135.528973 16.624887-237.717819 134.565212-237.717819 274.370877 0 157.484667 152.846564 165.465818 183.536348 165.465817h278.617451v68.246368z" fill="#d81e06" p-id="24418"></path><path d="M607.380623 331.296359h690.173767v70.926829H607.380623V331.296359z m0 287.953892h690.173767v70.956947H607.380623V619.220133z" fill="#d81e06" p-id="24419"></path></svg>